<svg width="24" height="25" viewBox="0 0 24 25" fill="none" xmlns="http://www.w3.org/2000/svg">
<path fill-rule="evenodd" clip-rule="evenodd" d="M20.4871 20.9853C18.2367 23.2357 15.1844 24.5 12.0018 24.5C8.81922 24.5 5.76697 23.2357 3.51653 20.9853C1.26609 18.7348 0.00181278 15.6826 0.00181287 12.5C0.00181278 9.3174 1.26609 6.26516 3.51653 4.01472C5.76697 1.76428 8.81922 0.499999 12.0018 0.499999C15.1844 0.5 18.2367 1.76428 20.4871 4.01472C22.7375 6.26516 24.0018 9.3174 24.0018 12.5C24.0018 15.6826 22.7375 18.7348 20.4871 20.9853ZM16.2445 8.25736C15.7758 7.78873 15.016 7.78873 14.5474 8.25736L12.0018 10.8029L9.45623 8.25736C8.9876 7.78873 8.2278 7.78873 7.75917 8.25736C7.29054 8.72599 7.29054 9.48579 7.75917 9.95442L10.3048 12.5L7.75917 15.0456C7.29054 15.5142 7.29054 16.274 7.75917 16.7426C8.2278 17.2113 8.9876 17.2113 9.45623 16.7426L12.0018 14.1971L14.5474 16.7426C15.016 17.2113 15.7758 17.2113 16.2445 16.7426C16.7131 16.274 16.7131 15.5142 16.2445 15.0456L13.6989 12.5L16.2445 9.95442C16.7131 9.48579 16.7131 8.72599 16.2445 8.25736Z" fill="#FFE3E3"/>
</svg>
