<svg width="62" height="46" viewBox="0 0 62 46" fill="none" xmlns="http://www.w3.org/2000/svg">
<path d="M41.8087 30.6619L0.634052 2.60036C0.0158135 2.10805 -0.231482 1.24651 0.263108 0.631124C0.757699 0.0157397 1.62323 -0.230413 2.24147 0.261895L43.4161 28.3234C44.0344 28.8157 44.2817 29.6773 43.7871 30.2927C43.2925 30.908 42.4269 31.1542 41.8087 30.6619Z" fill="#426FA6"/>
<path d="M51.2048 45.0627L40.4474 37.8011C36.738 35.3396 35.8724 30.2934 38.3454 26.7242C40.8183 23.0319 45.8879 22.1704 49.4737 24.6319L60.231 31.8934C62.0857 33.1242 62.5803 35.5857 61.2202 37.4319L56.6452 44.0781C55.5324 45.8011 53.0595 46.2934 51.2048 45.0627Z" fill="#9DBBCE"/>
<path d="M1.49958 3.21574L0.634052 2.60036C0.0158135 2.10805 -0.231482 1.24651 0.263108 0.631124C0.757699 0.0157397 1.62323 -0.230413 2.24147 0.261895L3.107 0.877279C3.72524 1.36959 3.97254 2.23113 3.47795 2.84651C2.98336 3.58497 2.11782 3.70805 1.49958 3.21574Z" fill="#B5C6D2"/>
<path d="M38.019 24.7512L35.875 23.293L34.2705 25.6303L36.4145 27.0886L38.019 24.7512Z" fill="#B5C6D2"/>
</svg>
