<svg width="24" height="25" viewBox="0 0 24 25" fill="none" xmlns="http://www.w3.org/2000/svg">
<path fill-rule="evenodd" clip-rule="evenodd" d="M12 0.5C5.376 0.5 0 5.876 0 12.5C0 19.124 5.376 24.5 12 24.5C18.624 24.5 24 19.124 24 12.5C24 5.876 18.624 0.5 12 0.5ZM9.35615 14.8608C9.49088 14.9952 9.70897 14.995 9.84351 14.8605L16.656 8.04801C17.1261 7.57794 17.8886 7.57929 18.357 8.05101C18.8231 8.52038 18.8217 9.27829 18.354 9.74601L10.4276 17.6724C9.97052 18.1295 9.22948 18.1295 8.77241 17.6724L4.44659 13.3466C3.97903 12.879 3.97903 12.121 4.44659 11.6534C4.91369 11.1863 5.67084 11.1858 6.13859 11.6522L9.35615 14.8608Z" fill="#E6FFB1"/>
</svg>
